<?xml version="1.0" encoding="utf-8"?>
<svg version="1.1" id="Layer_1" xmlns="http://www.w3.org/2000/svg" xmlns:xlink="http://www.w3.org/1999/xlink" x="0px" y="0px"
	 viewBox="0 0 4422.2 2220.9" style="enable-background:new 0 0 4422.2 2220.9;" xml:space="preserve">
<style type="text/css">
	.st0{fill:#0069B4;}
	.st1{fill:#282650;}
	.st2{fill:#FFFFFF;}
</style>
<g>
	<ellipse class="st0" cx="1009.8" cy="1015.4" rx="972.7" ry="987.4"/>
	<g>
		<path class="st1" d="M3025.8,1268.3c0,292.1-250.2,416.6-520.4,416.6c-250.2,0-440.4-96.5-538-302.3l325.3-188
			c32.5,96.5,102.6,149.9,212.7,149.9c90.1,0,135.1-27.9,135.1-78.7c0-139.7-615.5-66-615.5-505.5c0-276.9,230.2-416.6,490.4-416.6
			c202.7,0,382.8,91.4,487.9,271.8L2683,790.8c-35-66-85.1-111.8-167.6-111.8c-65.1,0-105.1,25.4-105.1,71.1
			C2410.3,895,3025.8,798.4,3025.8,1268.3z"/>
		<path class="st1" d="M4386.9,379.3v1206.5c0,426.7-327.8,607.1-660.6,607.1c-260.2,0-477.9-99.1-593-307.3l320.3-188
			c47.5,88.9,120.1,160,285.2,160c175.1,0,282.7-91.4,282.7-271.8V1469c-82.6,104.1-202.7,165.1-365.3,165.1
			c-355.3,0-615.5-294.6-615.5-645.2c0-350.5,260.2-645.2,615.5-645.2c162.6,0,282.7,61,365.3,165.1V379.3H4386.9z M4021.6,988.9
			c0-175.3-125.1-294.6-302.8-294.6c-177.6,0-302.8,119.4-302.8,294.6c0,175.3,125.1,294.6,302.8,294.6
			C3896.5,1283.6,4021.6,1164.2,4021.6,988.9z"/>
	</g>
	<g>
		<path class="st2" d="M1056.4,1345.3c102.6,0,190.2-40.6,240.2-96.5l300.3,175.3c-122.6,172.7-307.8,261.6-545.5,261.6
			c-427.9,0-693.1-292.1-693.1-670.6s270.2-670.6,665.6-670.6c365.3,0,635.6,287,635.6,670.6c0,53.3-5,104.1-15,152.4H756.1
			C803.7,1299.6,918.8,1345.3,1056.4,1345.3z M1286.6,883c-40-147.3-152.6-200.7-265.2-200.7c-142.6,0-237.7,71.1-272.7,200.7
			H1286.6z"/>
	</g>
</g>
</svg>
